<?xml version="1.0" standalone="no"?>
<!DOCTYPE svg PUBLIC "-//W3C//DTD SVG 20010904//EN"
 "http://www.w3.org/TR/2001/REC-SVG-20010904/DTD/svg10.dtd">
<svg version="1.0" xmlns="http://www.w3.org/2000/svg"
 width="302.000000pt" height="302.000000pt" viewBox="0 0 302.000000 302.000000"
 preserveAspectRatio="xMidYMid meet">
<metadata>
Created by potrace 1.14, written by Peter Selinger 2001-2017
</metadata>
<g transform="translate(0.000000,302.000000) scale(0.100000,-0.100000)"
fill="#000000" stroke="none">
<path d="M1438 3015 c-2 -1 -35 -5 -74 -8 -431 -37 -855 -293 -1096 -662 -123
-188 -211 -419 -234 -611 -3 -27 -7 -62 -10 -79 -6 -47 -6 -224 1 -285 23
-209 91 -418 191 -592 103 -181 232 -325 419 -471 40 -31 209 -137 250 -156
325 -154 699 -186 1035 -88 121 35 310 118 310 136 0 3 22 19 50 34 27 15 85
54 129 86 316 235 532 599 588 991 10 67 10 348 1 410 -60 402 -255 737 -573
986 -46 35 -85 64 -88 64 -3 0 -26 14 -51 31 -139 93 -406 184 -601 204 -62 7
-243 14 -247 10z"/>
</g>
</svg>
