<?xml version="1.0" standalone="no"?>
<!DOCTYPE svg PUBLIC "-//W3C//DTD SVG 20010904//EN"
 "http://www.w3.org/TR/2001/REC-SVG-20010904/DTD/svg10.dtd">
<svg version="1.0" xmlns="http://www.w3.org/2000/svg"
 width="302.000000pt" height="302.000000pt" viewBox="0 0 302.000000 302.000000"
 preserveAspectRatio="xMidYMid meet">
<metadata>
Created by potrace 1.14, written by Peter Selinger 2001-2017
</metadata>
<g transform="translate(0.000000,302.000000) scale(0.100000,-0.100000)"
fill="#000000" stroke="none">
<path d="M1502 2389 c-133 -16 -243 -48 -361 -105 -101 -50 -125 -66 -201
-143 -147 -148 -206 -294 -217 -538 l-6 -133 -26 0 c-14 0 -40 -9 -57 -19 -99
-60 -79 -304 35 -433 28 -33 31 -41 31 -105 0 -170 93 -330 255 -440 68 -46
177 -102 250 -128 65 -24 68 -27 50 -52 -13 -19 -22 -21 -68 -16 -29 3 -86 0
-127 -6 -106 -16 -261 -62 -257 -75 5 -16 206 -100 310 -130 279 -81 571 -78
837 6 136 43 290 117 269 128 -22 13 -249 58 -329 65 -100 10 -102 16 -10 35
190 40 306 95 401 190 70 70 104 131 123 221 7 36 21 68 41 90 86 98 135 212
135 312 0 54 -4 70 -28 103 -27 38 -28 41 -15 84 86 287 74 579 -28 703 -31
37 -94 77 -124 77 -8 0 -15 4 -15 8 0 5 -14 30 -31 56 -116 174 -493 285 -837
245z m-317 -955 c123 -17 221 -49 253 -81 23 -24 24 -29 20 -116 -6 -98 -28
-171 -59 -187 -27 -15 -31 -12 -10 9 21 21 51 138 51 200 0 77 -66 121 -231
154 -210 43 -281 22 -313 -91 -42 -150 -11 -185 194 -217 120 -18 260 -55 260
-69 0 -26 -329 18 -465 63 -70 23 -81 57 -64 196 14 120 22 143 51 154 28 11
179 4 313 -15z m-75 -34 l35 -1 -45 -17 c-52 -20 -90 -69 -90 -116 0 -55 50
-110 114 -127 22 -6 17 -7 -19 -3 -137 15 -195 43 -195 93 0 35 25 121 43 145
14 20 71 37 102 30 11 -2 36 -4 55 -4z m237 -60 c61 -27 70 -52 54 -148 -7
-42 -19 -87 -27 -99 -12 -20 -18 -21 -42 -12 -15 6 -58 19 -97 29 l-70 18 44
12 c100 27 134 122 69 196 l-33 37 30 -7 c17 -4 49 -16 72 -26z m-190 -5 c31
-20 29 -43 -3 -51 -51 -13 -105 23 -90 61 5 14 13 16 38 11 18 -3 42 -13 55
-21z m1079 -71 c19 -9 40 -26 46 -38 16 -28 17 -181 1 -197 -17 -17 -99 -23
-180 -14 -56 7 -63 9 -38 15 77 17 115 61 115 132 0 43 -4 54 -33 82 -18 17
-41 36 -52 42 -32 18 101 -3 141 -22z m-327 -13 c-33 -33 -39 -45 -39 -82 0
-71 42 -120 117 -139 31 -7 20 -9 -58 -7 -122 3 -129 8 -129 96 0 82 23 124
83 151 63 29 69 24 26 -19z m120 -15 c10 -11 7 -17 -11 -30 -45 -32 -120 -11
-104 29 7 20 99 21 115 1z m-639 -481 c118 -13 289 -29 379 -35 91 -6 166 -12
168 -14 2 -1 -16 -11 -39 -22 -37 -17 -67 -19 -228 -19 -195 1 -294 14 -406
56 -45 17 -110 58 -94 59 3 0 102 -11 220 -25z"/>
</g>
</svg>
